<?xml version="1.0" standalone="no"?>
<!DOCTYPE svg PUBLIC "-//W3C//DTD SVG 20010904//EN"
 "http://www.w3.org/TR/2001/REC-SVG-20010904/DTD/svg10.dtd">
<svg version="1.0" xmlns="http://www.w3.org/2000/svg"
 width="400.000000pt" height="400.000000pt" viewBox="0 0 400.000000 400.000000"
 preserveAspectRatio="xMidYMid meet">
<metadata>
Created by potrace 1.14, written by Peter Selinger 2001-2017
</metadata>
<g transform="translate(0.000000,400.000000) scale(0.100000,-0.100000)"
fill="#000000" stroke="none">
<path d="M1565 3700 c-220 -126 -407 -234 -415 -239 -13 -8 -263 -153 -414
-240 -22 -13 -84 -48 -136 -78 -52 -31 -111 -65 -130 -76 -19 -11 -44 -25 -55
-31 -53 -30 -79 -53 -91 -83 -12 -26 -14 -199 -14 -961 l0 -929 30 -41 c17
-23 34 -42 39 -42 5 0 60 -30 122 -66 63 -37 133 -77 156 -90 23 -13 140 -81
260 -151 120 -69 232 -134 250 -144 17 -10 120 -69 230 -132 109 -63 214 -124
233 -135 19 -11 102 -58 184 -106 112 -64 159 -86 186 -86 36 0 76 21 405 212
248 144 800 462 828 477 16 9 36 21 45 26 40 24 300 174 332 192 19 11 45 35
58 53 l22 33 0 937 0 937 -22 33 c-18 24 -133 96 -473 292 -247 143 -470 271
-495 285 -108 60 -448 258 -482 279 -21 13 -39 24 -42 24 -2 0 -35 18 -72 40
-45 26 -81 40 -104 40 -29 0 -119 -48 -435 -230z m715 -97 c129 -75 249 -143
265 -153 17 -9 104 -60 195 -112 91 -52 284 -164 430 -248 146 -84 280 -162
297 -174 65 -42 63 -12 63 -910 0 -447 -3 -827 -6 -843 -9 -48 -41 -74 -179
-153 -71 -40 -161 -92 -200 -115 -38 -23 -90 -53 -115 -67 -58 -32 -73 -41
-335 -193 -121 -70 -238 -137 -260 -150 -22 -12 -121 -69 -219 -126 -146 -83
-187 -103 -218 -102 -31 1 -153 67 -666 363 -345 200 -652 376 -682 393 -104
57 -148 90 -164 124 -14 30 -16 122 -16 860 0 979 -15 877 137 964 78 45 842
485 980 565 389 225 387 224 433 217 14 -2 131 -65 260 -140z"/>
<path d="M1820 3422 l-155 -89 -3 -467 c-1 -256 0 -466 2 -466 3 0 103 57 223
126 120 69 270 156 333 192 63 36 117 67 119 69 8 6 3 535 -5 543 -29 28 -295
173 -324 177 -30 4 -58 -9 -190 -85z"/>
<path d="M1105 3009 c-159 -93 -303 -176 -320 -183 -46 -22 -85 -56 -96 -85
-9 -23 -16 -898 -7 -906 3 -3 664 376 710 407 18 12 19 31 19 453 0 242 -1
450 -1 463 0 12 -3 22 -7 21 -5 0 -138 -77 -298 -170z"/>
<path d="M2588 2914 l-3 -268 -105 -63 c-58 -34 -110 -63 -117 -63 -6 0 -13
-3 -15 -7 -1 -5 -57 -39 -123 -77 -155 -89 -736 -424 -932 -537 -83 -49 -167
-97 -185 -107 -76 -43 -423 -244 -426 -247 -8 -8 -3 -263 6 -285 5 -14 18 -32
28 -41 15 -13 230 -139 457 -268 18 -10 76 -44 130 -76 54 -32 100 -55 103
-52 3 2 5 131 4 285 l0 279 26 18 c22 14 691 402 829 480 23 13 124 72 225
130 102 59 205 119 229 132 219 125 597 346 601 353 3 4 5 58 4 120 -1 136 -6
144 -129 217 -48 29 -89 53 -90 53 -2 0 -113 64 -247 141 -133 78 -249 144
-255 146 -10 4 -13 -55 -15 -263z"/>
<path d="M3225 2154 c-49 -29 -101 -59 -115 -66 -14 -8 -117 -68 -230 -133
-113 -65 -224 -129 -247 -142 l-43 -25 0 -485 c0 -417 2 -484 14 -480 13 5
402 229 608 350 62 36 91 59 99 80 9 22 13 152 13 489 1 253 -1 461 -4 462 -3
2 -45 -21 -95 -50z"/>
<path d="M2315 1631 c-8 -7 -324 -191 -513 -298 -24 -14 -65 -37 -90 -52 l-47
-27 0 -293 0 -293 145 -86 c191 -113 188 -113 370 -8 74 44 141 85 149 92 12
11 14 89 13 461 0 246 -1 463 -1 481 -1 32 -9 39 -26 23z"/>
</g>
</svg>
