<svg width="36" height="28" viewBox="0 0 36 28" fill="none" xmlns="http://www.w3.org/2000/svg">
<path d="M24.8634 24.8633C25.3983 24.6216 25.9179 24.4041 26.4225 24.1548C26.9257 23.9067 27.415 23.6281 27.9575 23.338C27.6704 23.1078 27.4365 22.9119 27.19 22.7325C27.1495 22.7033 27.0471 22.7312 26.9851 22.7592C25.4716 23.4602 23.9024 23.9957 22.27 24.3379C20.4644 24.7158 18.6424 24.8468 16.8001 24.7387C14.0803 24.5796 11.4983 23.8889 9.0276 22.7541C8.90748 22.6994 8.82529 22.7033 8.7254 22.7898C8.52309 22.9653 8.3094 23.1294 8.07168 23.3215C9.06174 23.9372 10.0758 24.4181 11.1556 24.8493C10.9129 25.2933 10.7004 25.7195 10.4551 26.1227C10.0935 26.7156 9.70407 27.2918 9.33485 27.8796C9.25267 28.0093 9.17301 28.0182 9.03771 27.975C5.87789 26.9649 2.97095 25.4549 0.30172 23.4793C0.162631 23.3762 0.106996 23.2592 0.0956163 23.1027C0.062741 22.6422 0.00710577 22.183 0.00710577 21.7224C0.00710577 20.4071 -0.0282985 19.0866 0.0589477 17.775C0.300455 14.1507 1.1982 10.6854 2.68518 7.37408C3.44258 5.68851 4.32769 4.07417 5.3405 2.53108C5.42142 2.40768 5.55166 2.29319 5.68569 2.23085C7.91869 1.19407 10.2503 0.465137 12.6692 0.0122586C12.8411 -0.0195447 12.9347 0.0287963 13.008 0.183996C13.2597 0.717019 13.5265 1.24241 13.7692 1.77925C13.8426 1.94081 13.9323 1.9688 14.0841 1.94335C15.8669 1.65585 17.6624 1.61133 19.4592 1.69274C20.2823 1.72963 21.103 1.8543 21.9236 1.9459C22.0766 1.96243 22.1664 1.93699 22.2384 1.77798C22.4837 1.2335 22.7531 0.701753 23.0034 0.159826C23.0704 0.0148028 23.164 -0.0182726 23.3081 0.00844218C25.7561 0.468953 28.1181 1.20297 30.3776 2.26139C30.4674 2.30337 30.5559 2.37842 30.6103 2.45984C32.9571 6.0129 34.6248 9.856 35.4518 14.0502C35.7199 15.4076 35.9196 16.7764 35.9626 18.1605C35.9993 19.355 36.0018 20.5508 35.9993 21.7453C35.9993 22.1982 35.9411 22.6498 35.912 23.1027C35.9007 23.2706 35.8324 23.3889 35.6895 23.4945C33.0253 25.4638 30.126 26.97 26.9725 27.9775C26.8283 28.0233 26.7487 28.0042 26.6564 27.8732C25.9887 26.9191 25.3881 25.9256 24.8634 24.8633V24.8633ZM15.2726 15.2969C15.2929 14.5158 15.0514 13.7271 14.5481 13.0223C13.3608 11.366 11.162 11.1841 9.79511 12.628C8.39791 14.1049 8.35871 16.5461 9.70786 18.0727C10.9799 19.5102 13.0359 19.5115 14.3041 18.0689C14.9768 17.3043 15.2815 16.3998 15.2726 15.2969V15.2969ZM20.7312 15.3821C20.7236 16.3337 21.0081 17.1809 21.5923 17.9289C22.7746 19.4415 24.8331 19.5649 26.1797 18.205C27.5958 16.7739 27.6629 14.3034 26.3301 12.745C25.2061 11.4309 23.3372 11.277 22.0361 12.4104C21.1409 13.1903 20.7502 14.208 20.7325 15.3834L20.7312 15.3821Z" fill="white"/>
</svg>
