<svg width="302" height="96" viewBox="0 0 302 96" fill="none" xmlns="http://www.w3.org/2000/svg">
<path d="M2.53377 25.0712L2 25.6465V26.4314V92V94H4H278.791H279.664L280.258 93.3602L299.466 72.6543L300 72.079V71.2941V4V2H298H24.8094H23.9367L23.3432 2.63979L2.53377 25.0712Z" stroke="url(#paint0_linear_20_236)" stroke-width="4"/>
<path d="M49.3212 60V32H58.7612C61.2679 32 63.2279 32.6533 64.6412 33.96C66.0546 35.24 66.7612 37.1067 66.7612 39.56C66.7612 40.7067 66.5212 41.7467 66.0412 42.68C65.5612 43.5867 64.8812 44.2667 64.0012 44.72C66.8012 45.8933 68.2012 48.1733 68.2012 51.56C68.2012 54.2533 67.3879 56.3333 65.7612 57.8C64.1346 59.2667 61.8679 60 58.9612 60H49.3212ZM54.5212 42.88H58.4812C59.6012 42.88 60.4279 42.64 60.9612 42.16C61.4946 41.68 61.7612 40.9067 61.7612 39.84C61.7612 38.7733 61.4812 38 60.9212 37.52C60.3879 37.04 59.5346 36.8 58.3612 36.8H54.5212V42.88ZM54.5212 55.2H58.4812C61.4946 55.2 63.0012 53.9467 63.0012 51.44C63.0012 48.9333 61.4946 47.68 58.4812 47.68H54.5212V55.2ZM74.4459 49.36V32H79.6459V49.44C79.6459 53.4933 81.2593 55.52 84.4859 55.52C86.1926 55.52 87.4193 55.04 88.1659 54.08C88.9393 53.0933 89.3259 51.5467 89.3259 49.44V32H94.5259V49.36C94.5259 52.9333 93.6059 55.6667 91.7659 57.56C89.9259 59.4 87.4993 60.32 84.4859 60.32C81.4726 60.32 79.0459 59.4 77.2059 57.56C75.3659 55.6667 74.4459 52.9333 74.4459 49.36ZM108.691 60V49.68L99.8106 32H105.411L111.091 44.12L116.771 32H122.371L113.491 49.68V60H108.691ZM155.42 60V32H160.62V55.2H173.22V60H155.42ZM182.385 60V55.2H188.305V36.8H182.385V32H199.425V36.8H193.505V55.2H199.425V60H182.385ZM207.909 60V32H218.109C220.803 32 222.896 32.72 224.389 34.16C225.883 35.6 226.629 37.5333 226.629 39.96C226.629 41.8267 226.176 43.4267 225.269 44.76C224.363 46.0667 223.069 46.9733 221.389 47.48L229.149 60H223.349L215.829 47.92H213.109V60H207.909ZM213.109 43.12H218.149C220.336 43.12 221.429 42.0667 221.429 39.96C221.429 37.8533 220.336 36.8 218.149 36.8H213.109V43.12ZM232.474 60L241.274 32H246.954L255.754 60H250.394L248.434 53.48H239.794L237.834 60H232.474ZM241.234 48.68H246.994L244.114 39L241.234 48.68Z" fill="url(#paint1_linear_20_236)"/>
<defs>
<linearGradient id="paint0_linear_20_236" x1="21.7584" y1="3.99999" x2="287.454" y2="60.3824" gradientUnits="userSpaceOnUse">
<stop stop-color="#B6FE46"/>
<stop offset="1" stop-color="#09FEF5" stop-opacity="0.6"/>
</linearGradient>
<linearGradient id="paint1_linear_20_236" x1="61.3624" y1="18" x2="237.18" y2="67.5508" gradientUnits="userSpaceOnUse">
<stop stop-color="#B6FE46"/>
<stop offset="1" stop-color="#09FEF5" stop-opacity="0.6"/>
</linearGradient>
</defs>
</svg>
