<svg width="302" height="88" viewBox="0 0 302 88" fill="none" xmlns="http://www.w3.org/2000/svg">
<path d="M2.60018 22.9637L2 23.5518V24.3922V84V86H4H278.791H279.608L280.191 85.4285L299.4 66.6049L300 66.0168V65.1765V4V2H298H24.8094H23.9928L23.4096 2.57154L2.60018 22.9637Z" stroke="url(#paint0_linear_733_538)" stroke-width="4"/>
<path d="M80.2989 53V30.6H87.8509C89.8562 30.6 91.4242 31.1227 92.5549 32.168C93.6855 33.192 94.2509 34.6853 94.2509 36.648C94.2509 37.5653 94.0589 38.3973 93.6749 39.144C93.2909 39.8693 92.7469 40.4133 92.0429 40.776C94.2829 41.7147 95.4029 43.5387 95.4029 46.248C95.4029 48.4027 94.7522 50.0667 93.4509 51.24C92.1495 52.4133 90.3362 53 88.0109 53H80.2989ZM84.4589 39.304H87.6269C88.5229 39.304 89.1842 39.112 89.6109 38.728C90.0375 38.344 90.2509 37.7253 90.2509 36.872C90.2509 36.0187 90.0269 35.4 89.5789 35.016C89.1522 34.632 88.4695 34.44 87.5309 34.44H84.4589V39.304ZM84.4589 49.16H87.6269C90.0375 49.16 91.2429 48.1573 91.2429 46.152C91.2429 44.1467 90.0375 43.144 87.6269 43.144H84.4589V49.16ZM100.399 44.488V30.6H104.559V44.552C104.559 47.7947 105.849 49.416 108.431 49.416C109.796 49.416 110.777 49.032 111.375 48.264C111.993 47.4747 112.303 46.2373 112.303 44.552V30.6H116.463V44.488C116.463 47.3467 115.727 49.5333 114.255 51.048C112.783 52.52 110.841 53.256 108.431 53.256C106.02 53.256 104.079 52.52 102.607 51.048C101.135 49.5333 100.399 47.3467 100.399 44.488ZM127.794 53V44.744L120.69 30.6H125.17L129.714 40.296L134.258 30.6H138.738L131.634 44.744V53H127.794ZM165.178 53V30.6H169.338V49.16H179.418V53H165.178ZM185.694 53V30.6H191.998C195.112 30.6 197.683 31.56 199.71 33.48C201.736 35.4 202.75 38.1733 202.75 41.8C202.75 45.4267 201.736 48.2 199.71 50.12C197.683 52.04 195.112 53 191.998 53H185.694ZM189.854 49.16H191.646C193.48 49.16 195.08 48.6053 196.446 47.496C197.832 46.3653 198.526 44.4667 198.526 41.8C198.526 39.1333 197.832 37.2347 196.446 36.104C195.08 34.9947 193.48 34.44 191.646 34.44H189.854V49.16ZM212.769 53V34.44H206.465V30.6H223.233V34.44H216.929V53H212.769Z" fill="url(#paint1_linear_733_538)"/>
<defs>
<linearGradient id="paint0_linear_733_538" x1="21.7584" y1="3.99999" x2="285.071" y2="65.4645" gradientUnits="userSpaceOnUse">
<stop stop-color="#B6FE46"/>
<stop offset="1" stop-color="#09FEF5" stop-opacity="0.6"/>
</linearGradient>
<linearGradient id="paint1_linear_733_538" x1="69.8188" y1="24" x2="219.723" y2="81.3932" gradientUnits="userSpaceOnUse">
<stop stop-color="#B6FE46"/>
<stop offset="1" stop-color="#09FEF5" stop-opacity="0.6"/>
</linearGradient>
</defs>
</svg>
