<svg width="302" height="88" viewBox="0 0 302 88" fill="none" xmlns="http://www.w3.org/2000/svg">
<path d="M24.8094 2H23.9928L23.4096 2.57154L2.60018 22.9637L2 23.5518V24.3922V84V86H4H278.791H279.608L280.191 85.4285L299.4 66.6049L300 66.0168V65.1765V4V2H298H24.8094Z" stroke="url(#paint0_linear_854_475)" stroke-width="4"/>
<path d="M58.8551 53V30.6H73.0631V34.44H63.0151V39.144H71.4631V42.984H63.0151V49.16H73.3831V53H58.8551ZM79.4989 53V30.6H83.3389L90.9229 45V30.6H94.7629V53H90.9229L83.3389 38.664V53H79.4989ZM106.351 53V34.44H100.047V30.6H116.815V34.44H110.511V53H106.351ZM122.706 53V30.6H136.914V34.44H126.866V39.144H135.314V42.984H126.866V49.16H137.234V53H122.706ZM143.318 53V30.6H151.478C153.633 30.6 155.307 31.176 156.502 32.328C157.697 33.48 158.294 35.0267 158.294 36.968C158.294 38.4613 157.931 39.7413 157.206 40.808C156.481 41.8533 155.446 42.5787 154.102 42.984L160.31 53H155.67L149.654 43.336H147.478V53H143.318ZM147.478 39.496H151.51C153.259 39.496 154.134 38.6533 154.134 36.968C154.134 35.2827 153.259 34.44 151.51 34.44H147.478V39.496ZM184.254 53L191.294 30.6H195.838L202.878 53H198.59L197.022 47.784H190.11L188.542 53H184.254ZM191.262 43.944H195.87L193.566 36.2L191.262 43.944ZM208.097 53V30.6H216.225C218.465 30.6 220.193 31.2187 221.409 32.456C222.625 33.672 223.233 35.3253 223.233 37.416C223.233 39.5067 222.625 41.1707 221.409 42.408C220.193 43.624 218.465 44.232 216.225 44.232H212.257V53H208.097ZM212.257 40.392H216.065C218.028 40.392 219.009 39.4 219.009 37.416C219.009 35.432 218.028 34.44 216.065 34.44H212.257V40.392ZM229.381 53V30.6H237.509C239.749 30.6 241.477 31.2187 242.693 32.456C243.909 33.672 244.517 35.3253 244.517 37.416C244.517 39.5067 243.909 41.1707 242.693 42.408C241.477 43.624 239.749 44.232 237.509 44.232H233.541V53H229.381ZM233.541 40.392H237.349C239.312 40.392 240.293 39.4 240.293 37.416C240.293 35.432 239.312 34.44 237.349 34.44H233.541V40.392Z" fill="url(#paint1_linear_854_475)"/>
<defs>
<linearGradient id="paint0_linear_854_475" x1="21.7584" y1="3.99999" x2="285.071" y2="65.4645" gradientUnits="userSpaceOnUse">
<stop stop-color="#B6FE46"/>
<stop offset="1" stop-color="#09FEF5" stop-opacity="0.6"/>
</linearGradient>
<linearGradient id="paint1_linear_854_475" x1="69.8188" y1="24" x2="219.723" y2="81.3932" gradientUnits="userSpaceOnUse">
<stop stop-color="#B6FE46"/>
<stop offset="1" stop-color="#09FEF5" stop-opacity="0.6"/>
</linearGradient>
</defs>
</svg>
