<svg width="169" height="360" viewBox="0 0 169 360" fill="none" xmlns="http://www.w3.org/2000/svg">
  <g opacity="0.4">
    <mask id="path-1-outside-1_738_806" maskUnits="userSpaceOnUse" x="13" y="82" width="144" height="199" fill="black">
      <rect fill="white" x="13" y="82" width="144" height="199"/>
      <path d="M123.272 277H99.8801V236.472H17.1921V226.952L97.7041 86.6H123.272V214.712H152.104V236.472H123.272V277ZM99.8801 122.504L48.2001 214.712H99.8801V122.504Z"/>
    </mask>
    <path d="M123.272 277V281H127.272V277H123.272ZM99.8801 277H95.8801V281H99.8801V277ZM99.8801 236.472H103.88V232.472H99.8801V236.472ZM17.1921 236.472H13.1921V240.472H17.1921V236.472ZM17.1921 226.952L13.7225 224.962L13.1921 225.886V226.952H17.1921ZM97.7041 86.6V82.6H95.3873L94.2345 84.6096L97.7041 86.6ZM123.272 86.6H127.272V82.6H123.272V86.6ZM123.272 214.712H119.272V218.712H123.272V214.712ZM152.104 214.712H156.104V210.712H152.104V214.712ZM152.104 236.472V240.472H156.104V236.472H152.104ZM123.272 236.472V232.472H119.272V236.472H123.272ZM99.8801 122.504H103.88V107.186L96.3908 120.548L99.8801 122.504ZM48.2001 214.712L44.7108 212.756L41.3728 218.712H48.2001V214.712ZM99.8801 214.712V218.712H103.88V214.712H99.8801ZM123.272 273H99.8801V281H123.272V273ZM103.88 277V236.472H95.8801V277H103.88ZM99.8801 232.472H17.1921V240.472H99.8801V232.472ZM21.1921 236.472V226.952H13.1921V236.472H21.1921ZM20.6618 228.942L101.174 88.5903L94.2345 84.6096L13.7225 224.962L20.6618 228.942ZM97.7041 90.6H123.272V82.6H97.7041V90.6ZM119.272 86.6V214.712H127.272V86.6H119.272ZM123.272 218.712H152.104V210.712H123.272V218.712ZM148.104 214.712V236.472H156.104V214.712H148.104ZM152.104 232.472H123.272V240.472H152.104V232.472ZM119.272 236.472V277H127.272V236.472H119.272ZM96.3908 120.548L44.7108 212.756L51.6894 216.668L103.369 124.46L96.3908 120.548ZM48.2001 218.712H99.8801V210.712H48.2001V218.712ZM103.88 214.712V122.504H95.8801V214.712H103.88Z" fill="url(#paint0_linear_738_806)" mask="url(#path-1-outside-1_738_806)"/>
  </g>
  <defs>
    <linearGradient id="paint0_linear_738_806" x1="84.5" y1="26.6667" x2="84.5" y2="306.667" gradientUnits="userSpaceOnUse">
      <stop stop-color="white" stop-opacity="0.8"/>
      <stop offset="1" stop-color="white" stop-opacity="0"/>
    </linearGradient>
  </defs>
</svg>
