<svg width="121" height="191" viewBox="0 0 121 191" fill="none" xmlns="http://www.w3.org/2000/svg">
<path opacity="0.4" d="M1.51213 38.136L-0.56575 34.718L-2.48787 35.8866V38.136H1.51213ZM63.2561 0.599991V-3.40001H62.1357L61.1783 -2.81797L63.2561 0.599991ZM71.9601 0.599991H75.9601V-3.40001H71.9601V0.599991ZM71.9601 170.328H67.9601V174.328H71.9601V170.328ZM120.92 170.328H124.92V166.328H120.92V170.328ZM120.92 191V195H124.92V191H120.92ZM0.152126 191H-3.84787V195H0.152126V191ZM0.152126 170.328V166.328H-3.84787V170.328H0.152126ZM49.1121 170.328V174.328H53.1121V170.328H49.1121ZM49.1121 34.872H53.1121V27.8418L47.0686 31.4334L49.1121 34.872ZM1.51213 63.16H-2.48787V70.1902L3.55564 66.5986L1.51213 63.16ZM3.59 41.5539L65.334 4.01794L61.1783 -2.81797L-0.56575 34.718L3.59 41.5539ZM63.2561 4.59999H71.9601V-3.40001H63.2561V4.59999ZM67.9601 0.599991V170.328H75.9601V0.599991H67.9601ZM71.9601 174.328H120.92V166.328H71.9601V174.328ZM116.92 170.328V191H124.92V170.328H116.92ZM120.92 187H0.152126V195H120.92V187ZM4.15213 191V170.328H-3.84787V191H4.15213ZM0.152126 174.328H49.1121V166.328H0.152126V174.328ZM53.1121 170.328V34.872H45.1121V170.328H53.1121ZM47.0686 31.4334L-0.531389 59.7214L3.55564 66.5986L51.1556 38.3106L47.0686 31.4334ZM5.51213 63.16V38.136H-2.48787V63.16H5.51213Z" fill="url(#paint0_linear_441_242)"/>
<defs>
<linearGradient id="paint0_linear_441_242" x1="52.5" y1="-59.3333" x2="52.5" y2="220.667" gradientUnits="userSpaceOnUse">
<stop stop-color="white" stop-opacity="0.8"/>
<stop offset="1" stop-color="white" stop-opacity="0"/>
</linearGradient>
</defs>
</svg>
