<svg width="123" height="194" viewBox="0 0 123 194" fill="none" xmlns="http://www.w3.org/2000/svg">
<path opacity="0.4" d="M0.0881271 138.776L-0.43125 134.81L-4.27806 135.314L-3.89202 139.174L0.0881271 138.776ZM22.9361 135.784L26.8922 135.193L26.3117 131.308L22.4168 131.818L22.9361 135.784ZM43.8801 94.44L40.672 96.8291L42.6727 99.5158L45.669 98.0177L43.8801 94.44ZM34.3601 81.656L31.1284 79.2989L29.3912 81.6807L31.152 84.0451L34.3601 81.656ZM77.6081 22.36L80.8399 24.7171L85.4765 18.36H77.6081V22.36ZM9.06413 22.36H5.06413V26.36H9.06413V22.36ZM9.06413 0.599991V-3.40001H5.06413V0.599991H9.06413ZM112.424 0.599991H116.424V-3.40001H112.424V0.599991ZM112.424 7.94399L115.642 10.3204L116.424 9.26102V7.94399H112.424ZM64.0081 73.496L60.7906 71.1196L53.28 81.2884L65.273 77.2907L64.0081 73.496ZM107.8 89L104.79 91.634L104.806 91.6529L104.823 91.6716L107.8 89ZM105.08 176.04L107.909 178.868L107.925 178.852L107.942 178.835L105.08 176.04ZM19.6721 178.216L22.3162 175.215L19.6721 178.216ZM0.607502 142.742L23.4555 139.75L22.4168 131.818L-0.43125 134.81L0.607502 142.742ZM18.98 136.375C20.8294 148.752 25.1051 158.614 32.2573 165.38C39.4635 172.197 49.1084 175.416 60.7441 175.416V167.416C50.6199 167.416 43.1287 164.651 37.7549 159.568C32.3272 154.434 28.5788 146.48 26.8922 135.193L18.98 136.375ZM60.7441 175.416C73.0616 175.416 83.6884 171.363 91.2297 163.552C98.7601 155.753 102.824 144.613 102.824 131.16H94.8241C94.8241 143.003 91.2722 151.991 85.4745 157.996C79.6879 163.989 71.2747 167.416 60.7441 167.416V175.416ZM102.824 131.16C102.824 117.474 98.8497 106.313 91.3251 98.5567C83.7896 90.7894 73.146 86.904 60.7441 86.904V94.904C71.4623 94.904 79.8587 98.2266 85.5832 104.127C91.3186 110.039 94.8241 119.006 94.8241 131.16H102.824ZM60.7441 86.904C54.0407 86.904 47.6795 88.0682 42.0913 90.8623L45.669 98.0177C49.8727 95.9158 54.9355 94.904 60.7441 94.904V86.904ZM47.0883 92.0509L37.5683 79.2669L31.152 84.0451L40.672 96.8291L47.0883 92.0509ZM37.5919 84.0131L80.8399 24.7171L74.3764 20.0029L31.1284 79.2989L37.5919 84.0131ZM77.6081 18.36H9.06413V26.36H77.6081V18.36ZM13.0641 22.36V0.599991H5.06413V22.36H13.0641ZM9.06413 4.59999H112.424V-3.40001H9.06413V4.59999ZM108.424 0.599991V7.94399H116.424V0.599991H108.424ZM109.207 5.56755L60.7906 71.1196L67.2257 75.8724L115.642 10.3204L109.207 5.56755ZM65.273 77.2907C66.2693 76.9586 68.1838 76.68 71.6241 76.68V68.68C67.9925 68.68 65.0109 68.9454 62.7432 69.7013L65.273 77.2907ZM71.6241 76.68C85.1674 76.68 96.0351 81.6286 104.79 91.634L110.81 86.366C100.525 74.6114 87.4569 68.68 71.6241 68.68V76.68ZM104.823 91.6716C113.556 101.403 118.216 114.527 118.216 131.16H126.216C126.216 112.976 121.084 97.8133 110.777 86.3284L104.823 91.6716ZM118.216 131.16C118.216 148.47 112.826 162.385 102.219 173.245L107.942 178.835C120.182 166.303 126.216 150.298 126.216 131.16H118.216ZM102.252 173.212C91.6705 183.793 78.0459 189.176 60.7441 189.176V197.176C79.8903 197.176 95.6417 191.135 107.909 178.868L102.252 173.212ZM60.7441 189.176C45.5959 189.176 32.9562 184.588 22.3162 175.215L17.028 181.217C29.236 191.972 43.7964 197.176 60.7441 197.176V189.176ZM22.3162 175.215C11.7036 165.865 5.60701 153.765 4.06828 138.378L-3.89202 139.174C-2.16676 156.427 4.79267 170.439 17.028 181.217L22.3162 175.215Z" fill="url(#paint0_linear_441_100)"/>
<defs>
<linearGradient id="paint0_linear_441_100" x1="62.5" y1="-59.3333" x2="62.5" y2="220.667" gradientUnits="userSpaceOnUse">
<stop stop-color="white" stop-opacity="0.8"/>
<stop offset="1" stop-color="white" stop-opacity="0"/>
</linearGradient>
</defs>
</svg>
