<svg width="33" height="28" viewBox="0 0 33 28" fill="none" xmlns="http://www.w3.org/2000/svg">
<path d="M32.9988 3.41737C32.135 4.7249 31.1018 5.84018 29.8908 6.77976C29.7583 6.88289 29.6761 6.97965 29.6847 7.17444C29.7828 9.59852 29.4307 11.9589 28.6748 14.2481C27.1117 18.9867 24.346 22.7476 20.1706 25.3283C18.1252 26.5926 15.9055 27.3654 13.5534 27.746C11.9779 28.0019 10.3951 28.0605 8.81104 27.9395C5.67485 27.6989 2.76442 26.7046 0.0883436 24.9846C0.0748466 24.9757 0.0638037 24.9616 0 24.8993C3.69816 25.2303 6.99018 24.2665 9.90798 21.9226C8.48221 21.8259 7.18159 21.3879 6.03558 20.5069C4.88344 19.6208 4.0773 18.4749 3.60123 17.0261C4.6319 17.1992 5.61472 17.1801 6.59755 16.8695C5.04417 16.4697 3.7362 15.6676 2.72393 14.3818C1.70675 13.0895 1.21595 11.5999 1.1865 9.93081C1.70061 10.1256 2.18282 10.3471 2.68589 10.4897C3.17791 10.6285 3.6908 10.6883 4.19755 10.7495C1.18159 8.1484 0.480981 5.03682 2.10307 1.27848C5.84172 5.82235 10.5067 8.30118 16.2258 8.70604C16.1816 8.34319 16.135 8.02873 16.108 7.71299C15.9313 5.68103 16.4883 3.8808 17.7951 2.36702C19.3448 0.571876 21.3202 -0.189469 23.6245 0.0396988C25.184 0.195023 26.5337 0.877433 27.6491 2.02327C27.8196 2.19896 27.9706 2.21424 28.1755 2.16586C29.5092 1.84885 30.773 1.34977 31.9656 0.653358C32.0098 0.627895 32.0564 0.603705 32.1521 0.551506C31.5988 2.20533 30.6282 3.44411 29.2564 4.37605C29.9031 4.36841 30.5252 4.22073 31.1374 4.03867C31.7571 3.85533 32.3669 3.62999 33 3.41737H32.9988Z" fill="white"/>
</svg>
