<svg width="119" height="193" viewBox="0 0 119 193" fill="none" xmlns="http://www.w3.org/2000/svg">
<path opacity="0.4" d="M118.2 193V197H122.2V193H118.2ZM0.696125 193H-3.30387V197H0.696125V193ZM0.696125 182.392L-2.41667 179.88L-3.30387 180.979V182.392H0.696125ZM75.7681 89.368L78.8809 91.8801L78.8863 91.8734L78.8916 91.8668L75.7681 89.368ZM84.2001 31.432L87.3091 28.9152L87.2966 28.8998L87.284 28.8845L84.2001 31.432ZM27.8961 56.728L27.1562 60.659L31.2571 61.4309L31.8549 57.301L27.8961 56.728ZM4.77613 52.376L0.792553 52.0139L0.463409 55.6344L4.03618 56.307L4.77613 52.376ZM23.2721 15.384L25.948 18.3572L25.9683 18.3389L25.9883 18.3204L23.2721 15.384ZM102.696 17.016L99.6904 19.6552L99.6915 19.6565L102.696 17.016ZM99.4321 94.536L102.553 97.0375L102.564 97.0239L102.575 97.0102L99.4321 94.536ZM37.9601 171.24L34.8388 168.739L29.6284 175.24H37.9601V171.24ZM118.2 171.24H122.2V167.24H118.2V171.24ZM118.2 189H0.696125V197H118.2V189ZM4.69613 193V182.392H-3.30387V193H4.69613ZM3.80892 184.904L78.8809 91.8801L72.6553 86.8559L-2.41667 179.88L3.80892 184.904ZM78.8916 91.8668C84.9771 84.2599 89.1083 77.9455 91.6938 71.8142C94.3141 65.6003 95.2721 59.7542 95.2721 53.192H87.2721C87.2721 58.8698 86.4621 63.6317 84.3224 68.7058C82.1479 73.8625 78.5271 79.5161 72.6447 86.8692L78.8916 91.8668ZM95.2721 53.192C95.2721 43.4241 92.5833 35.4304 87.3091 28.9152L81.0911 33.9488C85.065 38.8576 87.2721 45.0078 87.2721 53.192H95.2721ZM87.284 28.8845C81.1514 21.4609 72.2456 18.184 61.3521 18.184V26.184C70.5866 26.184 76.9128 28.8911 81.1163 33.9795L87.284 28.8845ZM61.3521 18.184C41.0528 18.184 27.1132 34.2132 23.9374 56.155L31.8549 57.301C34.6631 37.8988 46.2914 26.184 61.3521 26.184V18.184ZM28.6361 52.797L5.51607 48.445L4.03618 56.307L27.1562 60.659L28.6361 52.797ZM8.7597 52.7381C10.0276 38.7909 15.8108 27.4806 25.948 18.3572L20.5963 12.4108C8.97343 22.8714 2.24463 36.0411 0.792553 52.0139L8.7597 52.7381ZM25.9883 18.3204C36.1247 8.94424 47.9371 4.424 61.3521 4.424V-3.576C45.9351 -3.576 32.1796 1.69572 20.556 12.4476L25.9883 18.3204ZM61.3521 4.424C78.1605 4.424 90.8246 9.55804 99.6904 19.6552L105.702 14.3768C94.9837 2.16994 79.9037 -3.576 61.3521 -3.576V4.424ZM99.6915 19.6565C106.794 27.7387 110.664 38.9612 110.664 53.192H118.664C118.664 37.5028 114.374 24.2453 105.701 14.3755L99.6915 19.6565ZM110.664 53.192C110.664 66.8705 105.872 79.8896 96.2892 92.0618L102.575 97.0102C113.121 83.6144 118.664 68.8895 118.664 53.192H110.664ZM96.3108 92.0345L34.8388 168.739L41.0814 173.741L102.553 97.0375L96.3108 92.0345ZM37.9601 175.24H118.2V167.24H37.9601V175.24ZM114.2 171.24V193H122.2V171.24H114.2Z" fill="url(#paint0_linear_441_110)"/>
<defs>
<linearGradient id="paint0_linear_441_110" x1="52.5" y1="-57.3333" x2="52.5" y2="222.667" gradientUnits="userSpaceOnUse">
<stop stop-color="white" stop-opacity="0.8"/>
<stop offset="1" stop-color="white" stop-opacity="0"/>
</linearGradient>
</defs>
</svg>
